<svg width="691" height="698" viewBox="0 0 691 698" fill="none" xmlns="http://www.w3.org/2000/svg">
<path fill-rule="evenodd" clip-rule="evenodd" d="M585.034 127.087C605.552 131.331 623.372 143.675 634.647 161.357C645.92 179.038 649.592 200.398 644.786 220.788C638.537 247.526 646.961 276.526 666.74 295.85C681.803 310.503 690.263 330.382 690.11 351.485C689.959 372.398 681.802 392.253 666.567 406.858C646.7 426.098 638.318 454.681 644.559 481.689C649.494 502.223 645.796 523.449 634.409 541.046C623.456 558.335 606.407 570.073 586.652 574.478C586.106 574.689 585.536 574.854 584.945 574.969C558.006 580.191 535.369 599.555 526.133 625.603L526.121 625.636C519.078 645.279 504.7 661.179 485.396 669.831C466.219 678.425 444.793 679.02 425.217 671.105C399.598 660.922 370.175 664.906 348.279 681.68L348.276 681.682C331.637 694.419 310.831 699.763 290.078 696.579L290.014 696.569C284.437 695.676 278.994 694.281 273.625 692.134C261.579 687.392 251.047 679.849 242.688 670.04C242.389 669.69 242.115 669.319 241.868 668.93L241.777 668.788C240.968 667.852 239.842 666.527 238.793 664.929C226.617 648.134 208.455 636.81 188.515 633.155C181.44 632.019 174.604 631.516 168.015 632.1C167.983 632.103 167.95 632.105 167.917 632.108L167.873 632.111C146.951 633.666 126.662 626.919 110.884 613.099C107.69 610.479 104.997 607.662 102.633 604.871C100.709 602.833 98.9933 600.637 97.4949 598.287L93.8973 592.645C93.7787 592.459 93.6664 592.269 93.5604 592.076C88.0115 581.954 84.7325 570.656 84.1574 558.847C84.1467 558.627 84.1432 558.407 84.1471 558.187C84.1669 557.041 84.0953 555.875 83.9382 554.932C83.8286 554.274 83.7853 553.608 83.8081 552.945C83.7055 551.987 83.6137 551.146 83.5006 550.309C83.3566 549.903 83.2387 549.487 83.1481 549.063C82.9929 548.339 82.8211 547.656 82.6 546.783L82.5866 546.729C82.3789 545.909 82.1259 544.909 81.8886 543.804L80.8743 540.418C80.6574 540.004 80.4697 539.575 80.3126 539.134C79.3825 536.524 78.5783 534.28 77.6019 532.056L77.5187 531.925C77.2398 531.488 76.9953 531.029 76.7875 530.554C75.339 527.24 73.5274 524.017 71.4306 520.728C69.3337 517.439 67.1763 514.437 64.7826 511.726C64.4664 511.367 64.1762 510.987 63.9144 510.587C62.3288 508.817 60.4841 506.943 58.6108 505.097C58.2774 504.769 57.9677 504.418 57.6838 504.046L55.7851 502.359C54.904 501.763 54.2233 501.113 53.7239 500.55C52.9944 499.911 52.1204 499.251 51.1776 498.605C50.6644 498.254 50.1866 497.856 49.7495 497.418C48.8292 496.793 48.0478 496.276 47.3498 495.856C47.1354 495.727 46.9265 495.59 46.7231 495.445C46.5992 495.373 46.4682 495.292 46.3321 495.204C46.1744 495.103 46.0077 494.989 45.8344 494.863C45.2002 494.503 44.6283 494.158 44.1626 493.878L44.0899 493.834C43.3089 493.363 42.7945 493.056 42.2844 492.786C41.8974 492.581 41.5244 492.351 41.1676 492.098C41.1346 492.079 41.0061 492.005 40.6852 491.83C40.3136 491.627 39.4744 491.181 38.5562 490.559C21.7133 480.44 9.56158 464.596 4.12826 445.733L4.05644 445.482C3.47662 443.452 2.71376 440.781 2.27797 438.055C-1.20373 420.135 2.09006 401.994 11.0319 386.085L11.0589 386.038C22.3036 366.287 24.0623 342.21 16.7167 320.698C14.9927 316.057 13.2225 311.894 10.9628 308.004C10.796 307.717 10.6436 307.421 10.5062 307.119L10.3434 306.761C9.7003 305.345 9.49591 304.895 9.15317 304.357L8.67348 303.605C8.42575 303.216 8.20519 302.811 8.01335 302.392C2.64827 290.676 0.252407 277.946 1.03532 265.025C1.35413 259.25 2.3866 253.726 3.93065 248.292L3.94849 248.23C9.81812 228.071 23.4424 211.463 42.0105 201.751L42.0191 201.747C66.2886 189.084 82.496 163.957 84.0654 136.433L84.0676 136.396C85.3486 115.305 94.6724 96.2427 110.61 82.4356C126.595 68.5878 147.072 62.2607 167.847 64.1595C195.327 66.6131 222.548 54.3847 238.618 32.2077L238.632 32.1886C251.051 15.1337 269.545 4.28356 290.256 1.37624C311.123 -1.55292 331.717 4.23864 348.355 17.1693L348.375 17.1851C370.209 34.2441 399.862 38.6224 425.544 28.8302C445.211 21.1824 466.652 22.1649 485.674 30.851C504.871 39.6164 519.324 55.6733 526.253 75.5119C535.432 101.613 557.87 121.403 585.034 127.087ZM83.0578 546.383C83.1184 546.478 83.0642 546.405 82.9511 546.212C82.986 546.269 83.0217 546.326 83.0578 546.383ZM579.18 555.735C579.702 555.537 580.246 555.38 580.809 555.27C596.159 552.257 609.224 543.449 617.536 530.308C617.556 530.277 617.576 530.246 617.596 530.215C626.046 517.176 628.769 501.536 625.105 486.329C625.098 486.301 625.091 486.272 625.085 486.244C617.249 452.42 627.713 416.63 652.674 392.471L652.711 392.435C663.892 381.725 669.997 367.094 670.111 351.34C670.224 335.769 664.01 321.094 652.79 310.181L652.775 310.166C627.986 285.957 617.464 249.799 625.312 216.23L625.317 216.21C628.88 201.107 626.175 185.271 617.783 172.11C609.392 158.948 596.175 149.814 580.979 146.672L580.958 146.667C546.888 139.546 518.865 114.805 507.382 82.1339L507.375 82.1143C502.215 67.3375 491.531 55.5118 477.367 49.0441C463.037 42.5005 447.196 41.8621 432.768 47.4798L432.706 47.5036C400.492 59.8019 363.45 54.3375 336.072 32.9532C323.542 23.2195 308.345 19.0332 293.037 21.1821C277.573 23.3528 263.963 31.383 254.806 43.9523C234.533 71.9233 200.436 87.1519 166.06 84.0794L166.038 84.0775C150.539 82.6581 135.479 87.3533 123.706 97.5522C111.886 107.792 104.994 121.814 104.032 137.594C102.056 172.101 81.815 203.537 51.2795 219.474M579.18 555.735C546.182 562.841 518.676 586.8 507.286 618.91C502.03 633.549 491.423 645.213 477.216 651.58C462.886 658.003 447.11 658.391 432.689 652.553L432.633 652.53C400.517 639.754 363.651 644.712 336.12 665.8C323.806 675.226 308.497 679.162 293.143 676.815C288.793 676.117 284.814 675.071 281.028 673.555L280.971 673.532C272.192 670.08 264.515 664.651 258.345 657.572L258.252 657.426C257.999 657.029 257.719 656.651 257.413 656.294L257.157 655.995C256.144 654.815 255.822 654.44 255.48 653.902C255.378 653.743 255.272 653.586 255.161 653.433C239.933 632.295 217.131 618.035 191.999 613.46C191.933 613.448 191.867 613.437 191.801 613.426C183.703 612.12 175.1 611.402 166.325 612.171C150.702 613.314 135.683 608.282 123.956 597.962C123.86 597.878 123.763 597.795 123.664 597.715C121.55 595.993 119.633 594.013 117.738 591.76C117.6 591.595 117.456 591.435 117.307 591.28C116.178 590.101 115.199 588.853 114.359 587.535L110.945 582.182C106.961 574.819 104.607 566.67 104.149 558.167C104.162 556.634 104.092 554.924 103.884 553.18C103.885 553.173 103.885 553.167 103.885 553.16C103.913 552.606 103.944 551.416 103.602 549.959C103.464 548.707 103.293 547.279 103.03 545.701C102.902 544.933 102.685 544.184 102.385 543.47C102.25 542.909 102.119 542.391 102.003 541.93L101.989 541.876C101.85 541.328 101.731 540.855 101.623 540.4C101.491 539.163 101.16 538.116 100.824 537.319L99.6716 533.472C99.4565 532.754 99.1614 532.063 98.7923 531.412C97.8945 528.9 96.8595 526.079 95.5339 523.163C95.3393 522.735 95.1149 522.322 94.8622 521.925L94.7864 521.806C92.8682 517.545 90.6208 513.625 88.2943 509.976C85.9675 506.326 83.3605 502.634 80.306 499.096C80.0459 498.696 79.7574 498.315 79.4428 497.955C77.519 495.758 75.3851 493.567 73.416 491.611C72.9798 490.998 72.4754 490.436 71.9123 489.935L68.273 486.7C68.0924 486.539 67.9064 486.386 67.7155 486.239C66.3946 485.01 65.0194 483.924 63.7571 483.006C63.2968 482.533 62.7896 482.105 62.2423 481.73L62.1244 481.65C61.0537 480.916 59.7917 480.051 58.5322 479.256C58.2435 479.03 57.9676 478.837 57.7149 478.674C57.5789 478.586 57.4481 478.506 57.3242 478.433C56.9711 478.182 56.601 477.954 56.216 477.75C55.7059 477.48 55.1915 477.173 54.4105 476.703L54.3383 476.659C53.754 476.307 53.0023 475.854 52.1701 475.396C51.3373 474.849 50.5975 474.455 50.255 474.268C49.9341 474.093 49.8055 474.019 49.7726 474C49.5504 473.842 49.322 473.693 49.0877 473.554C36.4672 466.05 27.4127 454.303 23.3499 440.208C22.6765 437.848 22.2318 436.236 22.013 434.807C21.9915 434.666 21.9669 434.526 21.9393 434.386C19.3713 421.357 21.6794 407.971 28.4543 395.907C42.7114 370.846 44.7342 340.729 35.5948 314.092C35.5684 314.015 35.541 313.939 35.5128 313.863C33.657 308.856 31.4896 303.612 28.5223 298.419C28.5217 298.418 28.5212 298.416 28.5207 298.415C27.9829 297.218 27.1778 295.426 26.017 293.605L25.9239 293.459C22.1094 284.878 20.426 275.627 21.0001 266.211L21.0037 266.149C21.2266 262.078 21.9574 258.03 23.1593 253.793C27.5093 238.882 37.538 226.661 51.2795 219.474M69.5146 488.353C69.4784 488.296 69.4414 488.239 69.4041 488.183C69.5324 488.368 69.5752 488.448 69.5146 488.353Z" fill="#FDEACE"/>
</svg>
