<svg width="14" height="8" viewBox="0 0 14 8" fill="none" xmlns="http://www.w3.org/2000/svg">
<path fill-rule="evenodd" clip-rule="evenodd" d="M7.07249 7.40816C7.20552 7.3882 7.32857 7.32834 7.42502 7.23521L12.7463 2.12678C12.881 2.01287 12.9625 1.84907 12.9716 1.67364C12.9816 1.4982 12.9184 1.32609 12.7979 1.19887C12.6765 1.07083 12.5077 0.999323 12.3322 1.00015C12.156 1.00015 11.9889 1.07332 11.8683 1.2022L6.9859 5.89153L2.10351 1.2022C1.98295 1.07332 1.81582 1.00015 1.63956 1.00015C1.46412 0.999322 1.29534 1.07083 1.17395 1.19887C1.05339 1.32608 0.990197 1.49818 1.00017 1.67364C1.00932 1.84907 1.0908 2.01288 1.2255 2.12678L6.54679 7.23436C6.68647 7.36906 6.88041 7.4331 7.07249 7.40816Z" fill="#A7A7A7" stroke="#A7A7A7" stroke-width="0.5"/>
</svg>
